<svg width="20" height="20" viewBox="0 0 20 20" fill="none" xmlns="http://www.w3.org/2000/svg">
<rect x="0.5" y="0.5" width="19" height="19" rx="9.5" fill="#009944"/>
<rect x="0.5" y="0.5" width="19" height="19" rx="9.5" stroke="#009944"/>
<path d="M6 13.75C5.725 13.75 5.48958 13.6582 5.29375 13.4746C5.09792 13.291 5 13.0703 5 12.8125V7.1875C5 6.92969 5.09792 6.70898 5.29375 6.52539C5.48958 6.3418 5.725 6.25 6 6.25H9L10 7.1875H14C14.275 7.1875 14.5104 7.2793 14.7063 7.46289C14.9021 7.64648 15 7.86719 15 8.125V12.8125C15 13.0703 14.9021 13.291 14.7063 13.4746C14.5104 13.6582 14.275 13.75 14 13.75H6ZM6 12.8125H14V8.125H9.5875L8.5875 7.1875H6V12.8125Z" fill="white"/>
</svg>
