<svg width="20" height="20" viewBox="0 0 20 20" fill="none" xmlns="http://www.w3.org/2000/svg">
<rect x="0.5" y="0.5" width="19" height="19" rx="9.5" fill="#005BAA"/>
<rect x="0.5" y="0.5" width="19" height="19" rx="9.5" stroke="#005BAA"/>
<path d="M10.7265 12.1795L9.75783 13.1482C9.37248 13.5335 8.84982 13.75 8.30484 13.75C7.75986 13.75 7.23721 13.5335 6.85185 13.1482C6.46649 12.7628 6.25 12.2401 6.25 11.6952C6.25 11.1502 6.46649 10.6275 6.85185 10.2422L7.82051 9.2735M9.2735 7.82051L10.2422 6.85185C10.6275 6.46649 11.1502 6.25 11.6952 6.25C12.2401 6.25 12.7628 6.46649 13.1482 6.85185C13.5335 7.23721 13.75 7.75986 13.75 8.30484C13.75 8.84982 13.5335 9.37248 13.1482 9.75783L12.1795 10.7265M8.5968 11.4032L11.4335 8.56653" stroke="white" stroke-linecap="round" stroke-linejoin="round"/>
</svg>
