<svg width="24" height="25" viewBox="0 0 24 25" fill="none" xmlns="http://www.w3.org/2000/svg">
<path d="M11 13.5V16.5C11 16.7833 11.0958 17.0208 11.2875 17.2125C11.4792 17.4042 11.7167 17.5 12 17.5C12.2833 17.5 12.5208 17.4042 12.7125 17.2125C12.9042 17.0208 13 16.7833 13 16.5V13.5H16C16.2833 13.5 16.5208 13.4042 16.7125 13.2125C16.9042 13.0208 17 12.7833 17 12.5C17 12.2167 16.9042 11.9792 16.7125 11.7875C16.5208 11.5958 16.2833 11.5 16 11.5H13V8.5C13 8.21667 12.9042 7.97917 12.7125 7.7875C12.5208 7.59583 12.2833 7.5 12 7.5C11.7167 7.5 11.4792 7.59583 11.2875 7.7875C11.0958 7.97917 11 8.21667 11 8.5V11.5H8C7.71667 11.5 7.47917 11.5958 7.2875 11.7875C7.09583 11.9792 7 12.2167 7 12.5C7 12.7833 7.09583 13.0208 7.2875 13.2125C7.47917 13.4042 7.71667 13.5 8 13.5H11ZM5 21.5C4.45 21.5 3.97917 21.3042 3.5875 20.9125C3.19583 20.5208 3 20.05 3 19.5V5.5C3 4.95 3.19583 4.47917 3.5875 4.0875C3.97917 3.69583 4.45 3.5 5 3.5H19C19.55 3.5 20.0208 3.69583 20.4125 4.0875C20.8042 4.47917 21 4.95 21 5.5V19.5C21 20.05 20.8042 20.5208 20.4125 20.9125C20.0208 21.3042 19.55 21.5 19 21.5H5ZM5 19.5H19V5.5H5V19.5Z" fill="#004EA2"/>
</svg>
