<svg width="16" height="16" viewBox="0 0 16 16" fill="none" xmlns="http://www.w3.org/2000/svg">
<path d="M8.0257 13C6.62981 13 5.44753 12.5157 4.47886 11.5472C3.51009 10.5786 3.0257 9.39656 3.0257 8.001C3.0257 6.60544 3.51009 5.42306 4.47886 4.45383C5.44753 3.48461 6.62981 3 8.0257 3C8.80514 3 9.54275 3.17328 10.2385 3.51983C10.9342 3.8665 11.5128 4.35561 11.9744 4.98717V3.5C11.9744 3.35833 12.0223 3.23961 12.1182 3.14383C12.2141 3.04794 12.3329 3 12.4745 3C12.6163 3 12.735 3.04794 12.8307 3.14383C12.9265 3.23961 12.9744 3.35833 12.9744 3.5V6.47433C12.9744 6.64511 12.9166 6.78822 12.8012 6.90367C12.6856 7.01911 12.5425 7.07683 12.3719 7.07683H9.39753C9.25586 7.07683 9.13708 7.02894 9.0412 6.93317C8.94542 6.83728 8.89753 6.71844 8.89753 6.57667C8.89753 6.435 8.94542 6.31628 9.0412 6.2205C9.13708 6.12483 9.25586 6.077 9.39753 6.077H11.5309C11.1795 5.43333 10.6923 4.92628 10.0692 4.55583C9.4462 4.18528 8.76503 4 8.0257 4C6.91458 4 5.97014 4.38889 5.19236 5.16667C4.41458 5.94444 4.0257 6.88889 4.0257 8C4.0257 9.11111 4.41458 10.0556 5.19236 10.8333C5.97014 11.6111 6.91458 12 8.0257 12C8.80047 12 9.50975 11.7966 10.1535 11.3897C10.7973 10.9829 11.285 10.4402 11.6167 9.7615C11.6799 9.64017 11.7729 9.55533 11.8955 9.507C12.0182 9.45878 12.1432 9.456 12.2705 9.49867C12.4064 9.54144 12.5015 9.63033 12.5559 9.76533C12.6101 9.90044 12.6056 10.0287 12.5424 10.15C12.1295 11.0132 11.52 11.704 10.714 12.2223C9.90803 12.7408 9.01192 13 8.0257 13Z" fill="#101010"/>
</svg>
